HIERARCHY
ROOT root
{
  OFFSET 0 93.2929 0
  CHANNELS 6 Xposition Yposition Zposition Zrotation Xrotation Yrotation
  JOINT torso_1
  {
    OFFSET 0 5.07867 -1.15138
    CHANNELS 6 Xposition Yposition Zposition Zrotation Xrotation Yrotation
    JOINT torso_2
    {
      OFFSET 0 5.61661 1.07143
      CHANNELS 6 Xposition Yposition Zposition Zrotation Xrotation Yrotation
      JOINT torso_3
      {
        OFFSET -1.02604e-17 5.98978 0.11501
        CHANNELS 6 Xposition Yposition Zposition Zrotation Xrotation Yrotation
        JOINT torso_4
        {
          OFFSET -1.10457e-17 6.50583 -0.443523
          CHANNELS 6 Xposition Yposition Zposition Zrotation Xrotation Yrotation
          JOINT torso_5
          {
            OFFSET -1.97295e-17 7.60548 -1.50593
            CHANNELS 6 Xposition Yposition Zposition Zrotation Xrotation Yrotation
            JOINT torso_6
            {
              OFFSET -2.53307e-17 9.49737 -0.914492
              CHANNELS 6 Xposition Yposition Zposition Zrotation Xrotation Yrotation
              JOINT torso_7
              {
                OFFSET -2.90401e-17 10.5513 1.57691
                CHANNELS 6 Xposition Yposition Zposition Zrotation Xrotation Yrotation
                JOINT neck_1
                {
                  OFFSET -1.29193e-17 4.78644 0.715339
                  CHANNELS 6 Xposition Yposition Zposition Zrotation Xrotation Yrotation
                  JOINT neck_2
                  {
                    OFFSET -1.8116e-17 4.82109 0.421791
                    CHANNELS 6 Xposition Yposition Zposition Zrotation Xrotation Yrotation
                    JOINT head
                    {
                      OFFSET -2.00958e-17 4.83041 0.765062
                      CHANNELS 6 Xposition Yposition Zposition Zrotation Xrotation Yrotation
                      End Site
                      {
                        OFFSET 0 0.1 0
                      }
                    }
                  }
                }
                JOINT l_shoulder
                {
                  OFFSET 1.23299 -7.60731 7.53374
                  CHANNELS 6 Xposition Yposition Zposition Zrotation Xrotation Yrotation
                  JOINT l_up_arm
                  {
                    OFFSET 12.9547 3.2495 -3.26872
                    CHANNELS 6 Xposition Yposition Zposition Zrotation Xrotation Yrotation
                    JOINT l_low_arm
                    {
                      OFFSET 29.2081 0.0598081 0.137039
                      CHANNELS 6 Xposition Yposition Zposition Zrotation Xrotation Yrotation
                      JOINT l_hand
                      {
                        OFFSET 24.234 0.0496219 0.113701
                        CHANNELS 6 Xposition Yposition Zposition Zrotation Xrotation Yrotation
                        End Site
                        {
                          OFFSET 0.1 0 0
                        }
                      }
                    }
                  }
                }
                JOINT r_shoulder
                {
                  OFFSET -1.23299 -7.60729 7.53365
                  CHANNELS 6 Xposition Yposition Zposition Zrotation Xrotation Yrotation
                  JOINT r_up_arm
                  {
                    OFFSET -12.9547 3.2495 -3.26872
                    CHANNELS 6 Xposition Yposition Zposition Zrotation Xrotation Yrotation
                    JOINT r_low_arm
                    {
                      OFFSET -29.2081 0.0598081 0.137039
                      CHANNELS 6 Xposition Yposition Zposition Zrotation Xrotation Yrotation
                      JOINT r_hand
                      {
                        OFFSET -24.234 0.0496218 0.113702
                        CHANNELS 6 Xposition Yposition Zposition Zrotation Xrotation Yrotation
                        End Site
                        {
                          OFFSET -0.1 0 0
                        }
                      }
                    }
                  }
                }
              }
            }
          }
        }
      }
    }
  }
  JOINT l_up_leg
  {
    OFFSET 9.23673 -4.20556 2.0327
    CHANNELS 6 Xposition Yposition Zposition Zrotation Xrotation Yrotation
    JOINT l_low_leg
    {
      OFFSET -0.852353 -38.7721 -0.655187
      CHANNELS 6 Xposition Yposition Zposition Zrotation Xrotation Yrotation
      JOINT l_foot
      {
        OFFSET -2.32622 -40.4017 -6.04875
        CHANNELS 6 Xposition Yposition Zposition Zrotation Xrotation Yrotation
        JOINT l_toes
        {
          OFFSET 0.779096 -9.8844 12.4959
          CHANNELS 6 Xposition Yposition Zposition Zrotation Xrotation Yrotation
          End Site
          {
            OFFSET 0 0 0.1
          }
        }
      }
    }
  }
  JOINT r_up_leg
  {
    OFFSET -9.23673 -4.20556 2.0327
    CHANNELS 6 Xposition Yposition Zposition Zrotation Xrotation Yrotation
    JOINT r_low_leg
    {
      OFFSET 0.852353 -38.7721 -0.655187
      CHANNELS 6 Xposition Yposition Zposition Zrotation Xrotation Yrotation
      JOINT r_foot
      {
        OFFSET 2.32622 -40.4017 -6.04875
        CHANNELS 6 Xposition Yposition Zposition Zrotation Xrotation Yrotation
        JOINT r_toes
        {
          OFFSET -0.779096 -9.8844 12.4959
          CHANNELS 6 Xposition Yposition Zposition Zrotation Xrotation Yrotation
          End Site
          {
            OFFSET 0 0 0.1
          }
        }
      }
    }
  }
}
MOTION
Frames: 6
Frame Time: 0.016667
0 93.2929 0 -0 0 -0 0 5.07867 -1.15138 -0 0 -0 0 5.61661 1.07143 -0 0 -0 -1.02604e-17 5.98978 0.11501 -0 0 -0 -1.10457e-17 6.50583 -0.443523 -0 0 -0 -1.97295e-17 7.60548 -1.50593 -0 0 -0 -2.53307e-17 9.49737 -0.914492 -0 0 -0 -2.90401e-17 10.5513 1.57691 -0 0 -0 -1.29193e-17 4.78644 0.715339 -0 0 -0 -1.8116e-17 4.82109 0.421791 -0 0 -0 -2.00958e-17 4.83041 0.765062 -0 0 -0 1.23299 -7.60731 7.53374 -0 0 -0 12.9547 3.2495 -3.26872 -0 0 -0 29.2081 0.0598081 0.137039 -0 0 -0 24.234 0.0496219 0.113701 -0 0 -0 -1.23299 -7.60729 7.53365 -0 0 -0 -12.9547 3.2495 -3.26872 -0 0 -0 -29.2081 0.0598081 0.137039 -0 0 -0 -24.234 0.0496218 0.113702 -0 0 -0 9.23673 -4.20556 2.0327 -0 0 -0 -0.852353 -38.7721 -0.655187 -0 0 -0 -2.32622 -40.4017 -6.04875 -0 0 -0 0.779096 -9.8844 12.4959 -0 0 -0 -9.23673 -4.20556 2.0327 -0 0 -0 0.852353 -38.7721 -0.655187 -0 0 -0 2.32622 -40.4017 -6.04875 -0 0 -0 -0.779096 -9.8844 12.4959 -0 0 -0 
8.17406 92.3707 135.098 7.6725 -2.09626 4.28592 0 5.07867 -1.15138 -1.99408 -0.18035 1.37078 0 5.61661 1.07143 -1.85851 0.0440264 1.10079 -1.02604e-17 5.98978 0.11501 -1.57457 0.683481 1.16837 -1.10457e-17 6.50583 -0.443523 -1.33281 1.34752 1.18392 -1.97295e-17 7.60548 -1.50593 -0.785549 1.58198 1.32983 -2.53307e-17 9.49737 -0.914492 0.0539575 1.46553 1.17898 -2.90401e-17 10.5513 1.57691 -0.0123185 0.89665 -0.00775649 -1.29193e-17 4.78644 0.715339 0.0488302 3.01811 6.28204 -1.8116e-17 4.82109 0.421791 -0.916849 -2.41611 2.67481 -2.00958e-17 4.83041 0.765062 -1.6054 -2.39039 1.83103 1.23299 -7.60731 7.53374 0.186958 1.95856 0.00622913 12.9547 3.2495 -3.26872 -80.3679 11.7972 -2.14766 29.2081 0.0598081 0.137039 2.87254 -0.337016 -13.9719 24.234 0.0496219 0.113701 2.47984 -1.15365 -3.4531 -1.23299 -7.60729 7.53365 1.77377 2.81185 -0.217013 -12.9547 3.2495 -3.26872 82.5867 20.8516 1.27648 -29.2081 0.0598081 0.137039 -3.42817 -0.486394 16.7406 -24.234 0.0496218 0.113702 1.51308 -11.3218 3.45527 9.23673 -4.20556 2.0327 -7.03201 0.714067 -16.9253 -0.852353 -38.7721 -0.655187 -0.0243441 0.0908444 -0.00156639 -2.32622 -40.4017 -6.04875 -1.46492 1.87784 15.2147 0.779096 -9.8844 12.4959 3.18411e-16 -7.85965e-16 3.25019e-18 -9.23673 -4.20556 2.0327 -11.7076 -6.83448 8.36185 0.852353 -38.7721 -0.655187 2.3373 8.69827 -0.0256524 2.32622 -40.4017 -6.04875 -0.932453 -5.72594 -15.3845 -0.779096 -9.8844 12.4959 -8.04366e-16 -5.52582e-16 -1.27373e-14 
8.17523 92.371 135.092 7.6636 -2.12169 4.32674 0 5.07867 -1.15138 -1.98599 -0.181468 1.37095 0 5.61661 1.07143 -1.85221 0.0462359 1.10105 -1.02604e-17 5.98978 0.11501 -1.57068 0.689948 1.16785 -1.10457e-17 6.50583 -0.443523 -1.33115 1.36019 1.18315 -1.97295e-17 7.60548 -1.50593 -0.786467 1.60007 1.3292 -2.53307e-17 9.49737 -0.914492 0.0507369 1.48902 1.17972 -2.90401e-17 10.5513 1.57691 -0.0122068 0.896555 -0.00891331 -1.29193e-17 4.78644 0.715339 0.0560509 2.97138 6.24123 -1.8116e-17 4.82109 0.421791 -0.915439 -2.40946 2.65639 -2.00958e-17 4.83041 0.765062 -1.58348 -2.36734 1.82427 1.23299 -7.60731 7.53374 0.0220846 1.97942 -0.0507222 12.9547 3.2495 -3.26872 -80.4092 11.8528 -2.15765 29.2081 0.0598081 0.137039 2.87218 -0.336928 -13.9701 24.234 0.0496219 0.113701 2.4577 -1.32704 -3.47277 -1.23299 -7.60729 7.53365 1.76359 2.79887 -0.202748 -12.9547 3.2495 -3.26872 82.5769 20.9952 1.3392 -29.2081 0.0598081 0.137039 -3.45358 -0.493923 16.8681 -24.234 0.0496218 0.113702 1.51106 -11.4549 3.4468 9.23673 -4.20556 2.0327 -7.02841 0.73904 -16.9707 -0.852353 -38.7721 -0.655187 -0.0219168 0.081786 -0.00141194 -2.32622 -40.4017 -6.04875 -1.42538 1.89474 15.21 0.779096 -9.8844 12.4959 4.22417e-16 -7.82715e-16 2.88531e-33 -9.23673 -4.20556 2.0327 -11.7062 -6.8069 8.3316 0.852353 -38.7721 -0.655187 2.33807 8.70108 -0.0257187 2.32622 -40.4017 -6.04875 -0.913511 -5.71554 -15.3821 -0.779096 -9.8844 12.4959 -1.18348e-15 -5.40734e-16 -1.27195e-14 
8.17512 92.3705 135.086 7.65879 -2.1396 4.34735 0 5.07867 -1.15138 -1.98097 -0.182883 1.36944 0 5.61661 1.07143 -1.84809 0.0484152 1.09912 -1.02604e-17 5.98978 0.11501 -1.56806 0.696185 1.1652 -1.10457e-17 6.50583 -0.443523 -1.32989 1.37241 1.18023 -1.97295e-17 7.60548 -1.50593 -0.787326 1.6173 1.32646 -2.53307e-17 9.49737 -0.914492 0.0476366 1.51121 1.17808 -2.90401e-17 10.5513 1.57691 -0.0120896 0.896274 -0.010274 -1.29193e-17 4.78644 0.715339 0.0641047 2.92552 6.20445 -1.8116e-17 4.82109 0.421791 -0.913639 -2.40084 2.6398 -2.00958e-17 4.83041 0.765062 -1.57094 -2.34994 1.82557 1.23299 -7.60731 7.53374 -0.13672 2.0029 -0.108185 12.9547 3.2495 -3.26872 -80.4683 11.9359 -2.17659 29.2081 0.0598081 0.137039 2.86871 -0.336086 -13.953 24.234 0.0496219 0.113701 2.42229 -1.53158 -3.49861 -1.23299 -7.60729 7.53365 1.75081 2.7854 -0.187637 -12.9547 3.2495 -3.26872 82.5661 21.1528 1.41436 -29.2081 0.0598081 0.137039 -3.47695 -0.500903 16.9855 -24.234 0.0496218 0.113702 1.50506 -11.5803 3.44642 9.23673 -4.20556 2.0327 -7.02808 0.75759 -16.9968 -0.852353 -38.7721 -0.655187 -0.0193097 0.072057 -0.00124562 -2.32622 -40.4017 -6.04875 -1.38769 1.9086 15.2056 0.779096 -9.8844 12.4959 -1.64709e-16 -8.01062e-16 1.83477e-17 -9.23673 -4.20556 2.0327 -11.7069 -6.79024 8.31934 0.852353 -38.7721 -0.655187 2.33823 8.70168 -0.0257328 2.32622 -40.4017 -6.04875 -0.888706 -5.71348 -15.3803 -0.779096 -9.8844 12.4959 -5.10803e-16 -5.70929e-16 -1.27465e-14 
8.17442 92.3695 135.08 7.65348 -2.15158 4.35323 0 5.07867 -1.15138 -1.97858 -0.18732 1.36634 0 5.61661 1.07143 -1.84599 0.0481517 1.09531 -1.02604e-17 5.98978 0.11501 -1.56682 0.700047 1.16074 -1.10457e-17 6.50583 -0.443523 -1.32933 1.38257 1.17545 -1.97295e-17 7.60548 -1.50593 -0.788574 1.63267 1.32191 -2.53307e-17 9.49737 -0.914492 0.0441804 1.53105 1.17455 -2.90401e-17 10.5513 1.57691 -0.0119164 0.895837 -0.0118744 -1.29193e-17 4.78644 0.715339 0.0728261 2.87829 6.17138 -1.8116e-17 4.82109 0.421791 -0.911307 -2.38675 2.62486 -2.00958e-17 4.83041 0.765062 -1.55488 -2.32515 1.82636 1.23299 -7.60731 7.53374 -0.292231 2.02988 -0.1695 12.9547 3.2495 -3.26872 -80.5406 12.0419 -2.20034 29.2081 0.0598081 0.137039 2.86182 -0.334413 -13.9188 24.234 0.0496219 0.113701 2.38205 -1.74836 -3.52147 -1.23299 -7.60729 7.53365 1.73107 2.77223 -0.17138 -12.9547 3.2495 -3.26872 82.5636 21.3263 1.48865 -29.2081 0.0598081 0.137039 -3.49955 -0.507705 17.0991 -24.234 0.0496218 0.113702 1.50231 -11.7015 3.44995 9.23673 -4.20556 2.0327 -7.02697 0.771696 -17.0124 -0.852353 -38.7721 -0.655187 -0.0160826 0.0600141 -0.00103913 -2.32622 -40.4017 -6.04875 -1.35069 1.91871 15.2015 0.779096 -9.8844 12.4959 -3.72721e-16 -8.07563e-16 2.48481e-17 -9.23673 -4.20556 2.0327 -11.7061 -6.78541 8.3168 0.852353 -38.7721 -0.655187 2.33925 8.70543 -0.0258215 2.32622 -40.4017 -6.04875 -0.86362 -5.714 -15.3782 -0.779096 -9.8844 12.4959 -7.85911e-16 -5.56408e-16 -1.2732e-14 
8.17344 92.3698 135.075 7.64986 -2.17964 4.35107 0 5.07867 -1.15138 -1.98008 -0.187642 1.3628 0 5.61661 1.07143 -1.84695 0.0508433 1.09047 -1.02604e-17 5.98978 0.11501 -1.5678 0.705225 1.15527 -1.10457e-17 6.50583 -0.443523 -1.33019 1.39113 1.16963 -1.97295e-17 7.60548 -1.50593 -0.790595 1.64486 1.31658 -2.53307e-17 9.49737 -0.914492 0.0404791 1.54652 1.17018 -2.90401e-17 10.5513 1.57691 -0.0117783 0.895744 -0.0135265 -1.29193e-17 4.78644 0.715339 0.0823602 2.82068 6.13859 -1.8116e-17 4.82109 0.421791 -0.909158 -2.36384 2.60996 -2.00958e-17 4.83041 0.765062 -1.52831 -2.27855 1.82779 1.23299 -7.60731 7.53374 -0.448393 2.06369 -0.236353 12.9547 3.2495 -3.26872 -80.616 12.155 -2.23003 29.2081 0.0598081 0.137039 2.85031 -0.33163 -13.8618 24.234 0.0496219 0.113701 2.34446 -1.95177 -3.53107 -1.23299 -7.60729 7.53365 1.71476 2.76272 -0.151301 -12.9547 3.2495 -3.26872 82.5611 21.5017 1.55764 -29.2081 0.0598081 0.137039 -3.52181 -0.51445 17.211 -24.234 0.0496218 0.113702 1.5013 -11.8173 3.45406 9.23673 -4.20556 2.0327 -7.02638 0.794454 -17.0263 -0.852353 -38.7721 -0.655187 -0.0161003 0.0600802 -0.00104026 -2.32622 -40.4017 -6.04875 -1.31335 1.93374 15.1973 0.779096 -9.8844 12.4959 -7.91581e-17 -7.98389e-16 1.56742e-17 -9.23673 -4.20556 2.0327 -11.704 -6.77119 8.32542 0.852353 -38.7721 -0.655187 2.3418 8.71481 -0.0260436 2.32622 -40.4017 -6.04875 -0.842495 -5.70577 -15.3758 -0.779096 -9.8844 12.4959 -4.06797e-16 -5.74179e-16 -1.27497e-14 
